<svg width="24" height="23" viewBox="0 0 24 23" fill="none" xmlns="http://www.w3.org/2000/svg">
<path id="Vector" d="M22.2385 10.5375H12.4353V0.8625C12.4353 0.4125 12.0538 0 11.5579 0C11.1002 0 10.6806 0.375 10.6806 0.8625V10.5375H0.877334C0.419595 10.5375 0 10.9125 0 11.4C0 11.85 0.38145 12.2625 0.877334 12.2625H10.7187V21.8625C10.7187 22.3125 11.1002 22.725 11.5961 22.725C12.0538 22.725 12.4734 22.35 12.4734 21.8625V12.225H22.2385C22.6963 12.225 23.1158 11.85 23.1158 11.3625C23.1158 10.9125 22.6963 10.5375 22.2385 10.5375Z" fill="black"/>
</svg>
