<svg width="24" height="23" viewBox="0 0 24 23" fill="none" xmlns="http://www.w3.org/2000/svg">
<g id="Group">
<path id="Vector" d="M12.0983 23C11.5948 23 11.0912 22.787 10.7039 22.4037C9.81297 21.5519 8.99955 20.7852 8.2636 20.1037C6.05574 18.0167 4.11901 16.2704 2.76331 14.4815C1.1752 12.3519 0.400513 10.35 0.400513 8.09259C0.400513 5.92037 1.09773 3.87593 2.33723 2.38519C3.61547 0.851852 5.39725 0 7.29524 0C8.72841 0 10.0841 0.511111 11.2461 1.49074C11.556 1.7463 11.8272 2.00185 12.0983 2.34259C12.3694 2.04444 12.6406 1.7463 12.9505 1.49074C14.1125 0.511111 15.4295 0 16.9014 0C18.8381 0 20.5811 0.851852 21.8594 2.38519C23.1376 3.87593 23.7961 5.92037 23.7961 8.09259C23.7961 10.35 23.0601 12.3519 21.4333 14.4815C20.0776 16.2704 18.1409 18.0593 15.933 20.1037C15.1971 20.7852 14.3449 21.5944 13.454 22.4037C13.1054 22.787 12.6018 23 12.0983 23ZM7.29524 1.91667C5.86206 1.91667 4.54509 2.55556 3.57673 3.66296C2.64711 4.81296 2.14356 6.38889 2.14356 8.09259C2.14356 9.83889 2.76331 11.5 4.08028 13.2463C5.35852 14.9074 7.21777 16.6537 9.34816 18.6556C10.0841 19.337 10.9363 20.1463 11.8272 20.9981C11.9821 21.1259 12.2145 21.1259 12.3694 20.9981C13.2603 20.1463 14.1125 19.3796 14.8484 18.6556C17.0176 16.6111 18.8768 14.9074 20.1163 13.2463C21.4333 11.5 22.053 9.83889 22.053 8.09259C22.053 6.38889 21.5108 4.81296 20.5811 3.70556C19.6128 2.55556 18.2958 1.91667 16.9014 1.91667C15.8555 1.91667 14.8872 2.3 14.035 2.98148C13.6864 3.27963 13.3765 3.62037 13.0667 4.0037C12.8343 4.30185 12.4856 4.51482 12.0983 4.51482C11.711 4.51482 11.4011 4.34444 11.1299 4.0037C10.8201 3.62037 10.5102 3.27963 10.1616 2.98148C9.34816 2.3 8.3798 1.91667 7.29524 1.91667Z" fill="black"/>
</g>
</svg>
