<svg width="23" height="23" viewBox="0 0 23 23" fill="none" xmlns="http://www.w3.org/2000/svg">
<path id="Vector" d="M20.6089 2.15495H12.335V0.953153C12.335 0.455856 11.9554 0 11.462 0C11.0066 0 10.5891 0.414414 10.5891 0.953153V2.11351H2.31518C1.02475 2.11351 0 3.23243 0 4.64144V13.0541C0 14.4631 1.02475 15.582 2.31518 15.582H5.57921L2.467 21.591C2.23927 22.0468 2.39109 22.627 2.80858 22.8757C2.92244 22.9586 3.07426 23 3.22607 23C3.5297 23 3.83333 22.8342 3.98515 22.5027L7.51485 15.582H10.5891V22.0468C10.5891 22.5441 10.9686 23 11.462 23C11.9175 23 12.335 22.5856 12.335 22.0468V15.6234H15.4851L19.0528 22.5441C19.2046 22.8342 19.5083 23 19.8119 23C19.9637 23 20.1155 22.9586 20.2294 22.8757C20.6469 22.627 20.7987 22.0468 20.571 21.591L17.4587 15.582H20.6848C21.9752 15.582 23 14.4631 23 13.0541V4.68288C22.962 3.27387 21.8993 2.15495 20.6089 2.15495ZM21.2541 13.0955C21.2541 13.4685 20.9884 13.7586 20.6469 13.7586H2.31518C1.9736 13.7586 1.70792 13.4685 1.70792 13.0955V4.68288C1.70792 4.30991 1.9736 4.01982 2.31518 4.01982H20.6469C20.9884 4.01982 21.2541 4.30991 21.2541 4.68288V13.0955Z" fill="black"/>
</svg>
