<svg width="33" height="28" viewBox="0 0 33 28" fill="none" xmlns="http://www.w3.org/2000/svg">
<g id="Home">
<path id="Vector" d="M30.5573 13.125C30.345 13.1238 30.1384 13.0657 29.9665 12.9587L16.2972 4.57624L2.62792 12.9587C2.40862 13.0703 2.1486 13.1072 1.89919 13.0621C1.64977 13.0171 1.42909 12.8933 1.28071 12.7153C1.13232 12.5373 1.06702 12.3179 1.09769 12.1006C1.12836 11.8832 1.25277 11.6836 1.44637 11.5412L15.7064 2.79124C15.8789 2.68573 16.0854 2.62903 16.2972 2.62903C16.509 2.62903 16.7155 2.68573 16.888 2.79124L31.148 11.5412C31.322 11.6494 31.4516 11.802 31.5186 11.9772C31.5855 12.1525 31.5863 12.3414 31.5207 12.517C31.4552 12.6927 31.3268 12.846 31.1538 12.9552C30.9807 13.0644 30.772 13.1238 30.5573 13.125Z" fill="#29C154"/>
<path id="Vector_2" d="M5.09289 7.875C4.82274 7.875 4.56366 7.78281 4.37264 7.61872C4.18162 7.45462 4.07431 7.23206 4.07431 7V3.5C4.07431 3.26794 4.18162 3.04538 4.37264 2.88128C4.56366 2.71719 4.82274 2.625 5.09289 2.625H9.16719C9.43733 2.625 9.69641 2.71719 9.88743 2.88128C10.0785 3.04538 10.1858 3.26794 10.1858 3.5C10.1858 3.73206 10.0785 3.95462 9.88743 4.11872C9.69641 4.28281 9.43733 4.375 9.16719 4.375H6.11146V7C6.11146 7.23206 6.00415 7.45462 5.81313 7.61872C5.62211 7.78281 5.36303 7.875 5.09289 7.875Z" fill="#29C154"/>
<path id="Vector_3" d="M25.4644 25.375H20.3715C20.1014 25.375 19.8423 25.2828 19.6513 25.1187C19.4603 24.9546 19.3529 24.7321 19.3529 24.5V18.375H13.2415V24.5C13.2415 24.7321 13.1342 24.9546 12.9432 25.1187C12.7521 25.2828 12.4931 25.375 12.2229 25.375H7.13004C6.31961 25.375 5.54237 25.0984 4.96931 24.6062C4.39625 24.1139 4.07431 23.4462 4.07431 22.75V14C4.07431 13.7679 4.18162 13.5454 4.37264 13.3813C4.56366 13.2172 4.82274 13.125 5.09289 13.125C5.36303 13.125 5.62211 13.2172 5.81313 13.3813C6.00415 13.5454 6.11146 13.7679 6.11146 14V22.75C6.11146 22.9821 6.21878 23.2046 6.4098 23.3687C6.60082 23.5328 6.85989 23.625 7.13004 23.625H11.2043V17.5C11.2043 17.2679 11.3117 17.0454 11.5027 16.8813C11.6937 16.7172 11.9528 16.625 12.2229 16.625H20.3715C20.6417 16.625 20.9007 16.7172 21.0918 16.8813C21.2828 17.0454 21.3901 17.2679 21.3901 17.5V23.625H25.4644C25.7345 23.625 25.9936 23.5328 26.1846 23.3687C26.3757 23.2046 26.483 22.9821 26.483 22.75V14C26.483 13.7679 26.5903 13.5454 26.7813 13.3813C26.9723 13.2172 27.2314 13.125 27.5016 13.125C27.7717 13.125 28.0308 13.2172 28.2218 13.3813C28.4128 13.5454 28.5201 13.7679 28.5201 14V22.75C28.5201 23.4462 28.1982 24.1139 27.6251 24.6062C27.0521 25.0984 26.2748 25.375 25.4644 25.375Z" fill="#29C154"/>
</g>
</svg>
