<svg width="23" height="21" viewBox="0 0 23 21" fill="none" xmlns="http://www.w3.org/2000/svg">
<path id="Vector" d="M22.2581 12.169H21.39C21.0969 12.169 20.8484 11.7312 20.8484 11.2173V4.0231C20.8484 3.49495 21.1155 3.03341 21.4197 3.03341H22.2581C22.4548 3.03341 22.6436 2.93315 22.7827 2.75469C22.9218 2.57622 23 2.33418 23 2.08179C23 1.82941 22.9218 1.58736 22.7827 1.40889C22.6436 1.23043 22.4548 1.13017 22.2581 1.13017H21.4197C21.0569 1.13623 20.7022 1.26758 20.3928 1.51041C20.0833 1.75323 19.8306 2.09855 19.6613 2.51002H14.8053L14.0968 1.71542C13.4664 0.990789 12.7086 0.472889 11.8881 0.206061C11.0676 -0.0607664 10.2089 -0.0685735 9.38548 0.183309C7.30806 0.858959 5.93548 3.00486 5.45694 3.88987H4.715C4.72332 3.18321 4.51699 2.50011 4.13967 1.98507C3.76235 1.47004 3.24363 1.16345 2.69323 1.13017H0.741935C0.545162 1.13017 0.356448 1.23043 0.217308 1.40889C0.078168 1.58736 0 1.82941 0 2.08179C0 2.33418 0.078168 2.57622 0.217308 2.75469C0.356448 2.93315 0.545162 3.03341 0.741935 3.03341H2.68581C2.97887 3.03341 3.22742 3.4664 3.22742 3.98503V11.1745C3.22742 11.7027 2.96032 12.169 2.65613 12.169H0.741935C0.545162 12.169 0.356448 12.2692 0.217308 12.4477C0.078168 12.6261 0 12.8682 0 13.1206C0 13.373 0.078168 13.615 0.217308 13.7935C0.356448 13.9719 0.545162 14.0722 0.741935 14.0722H2.65613C3.01678 14.0626 3.36889 13.9296 3.67607 13.6871C3.98324 13.4445 4.23433 13.1011 4.40339 12.6924H4.66306C4.94505 12.6931 5.2222 12.7865 5.46806 12.9636C5.44927 13.0924 5.45142 13.2249 5.47441 13.3526C5.49739 13.4803 5.54069 13.6006 5.60161 13.7058L6.45855 15.1761C6.55945 15.3442 6.69997 15.466 6.85919 15.5234L7.99435 15.9136L8.50258 17.303C8.54807 17.4275 8.61407 17.538 8.69604 17.6267C8.77802 17.7154 8.87402 17.7803 8.97742 17.8168L10.1719 18.2355L10.9473 19.8152C11.0451 20.0147 11.1971 20.1605 11.3739 20.2244L13.4402 20.9619C13.5053 20.9863 13.5727 20.9991 13.6405 21C13.762 21.0002 13.8817 20.9622 13.9891 20.8892C14.0965 20.8162 14.1882 20.7104 14.2563 20.5813L18.1329 13.1967C18.1669 13.1321 18.2128 13.0793 18.2665 13.0428C18.3202 13.0063 18.38 12.9872 18.4408 12.9874H19.8023C19.9807 13.3169 20.2178 13.5872 20.4939 13.7758C20.77 13.9645 21.0772 14.0661 21.39 14.0722H22.2581C22.4548 14.0722 22.6436 13.9719 22.7827 13.7935C22.9218 13.615 23 13.373 23 13.1206C23 12.8682 22.9218 12.6261 22.7827 12.4477C22.6436 12.2692 22.4548 12.169 22.2581 12.169ZM6.65516 4.99375C7.0521 4.27528 8.13903 2.54808 9.74903 2.02469C10.3401 1.84964 10.9553 1.86033 11.5424 2.05584C12.1295 2.25135 12.6711 2.62589 13.1211 3.1476L14.6384 4.84149C14.8231 5.02259 14.9455 5.28883 14.9797 5.58375C14.9826 5.658 14.9735 5.73222 14.9531 5.80179C14.9327 5.87136 14.9013 5.93481 14.861 5.98819L14.2303 6.85417C14.07 7.07662 13.8509 7.2145 13.6156 7.24089C13.3804 7.26728 13.1459 7.1803 12.9579 6.99691L12.8095 6.85417C12.3503 6.40888 11.781 6.19198 11.2067 6.24359C10.6325 6.2952 10.0922 6.61183 9.68597 7.13489L6.41032 11.479C5.90852 11.0416 5.31796 10.8018 4.71129 10.7891V5.79311H5.45323C5.68864 5.79171 5.92042 5.71849 6.12942 5.5795C6.33841 5.44051 6.51862 5.23973 6.65516 4.99375ZM16.905 12.1309L13.3252 18.9445L12.049 18.4687L11.2737 16.889C11.175 16.6886 11.0216 16.5427 10.8434 16.4798L9.70081 16.0801L9.18887 14.686C9.14339 14.5614 9.07738 14.451 8.99541 14.3622C8.91343 14.2735 8.81744 14.2087 8.71403 14.1721L7.49355 13.7534L7.1671 13.1967L10.7358 8.43861C10.8904 8.24335 11.0946 8.12584 11.3112 8.1075C11.5277 8.08916 11.7422 8.17121 11.9155 8.33869L12.0639 8.48144C12.5454 8.94763 13.1445 9.16822 13.7455 9.10055C14.3464 9.03287 14.9065 8.68173 15.3173 8.11506L15.9516 7.28715C16.128 7.04676 16.2646 6.76306 16.3532 6.45314C16.4419 6.14322 16.4806 5.81349 16.4673 5.48383C16.4518 5.10986 16.3733 4.74463 16.2373 4.41326H19.3645V11.0746H18.4408C18.1369 11.0758 17.838 11.1728 17.5702 11.357C17.3024 11.5412 17.0739 11.8069 16.905 12.1309Z" fill="black"/>
</svg>
