<svg width="20" height="20" viewBox="0 0 20 20" fill="none" xmlns="http://www.w3.org/2000/svg">
<g id="lni_lni-chevron-down-circle" clip-path="url(#clip0_44_394)">
<g id="Group">
<path id="Vector" d="M0.5625 10C0.5625 15.2188 4.78125 19.4375 10 19.4375C15.2188 19.4375 19.4688 15.2188 19.4688 10C19.4688 4.78125 15.2188 0.53125 10 0.53125C4.78125 0.53125 0.5625 4.78125 0.5625 10ZM18.0625 10C18.0625 14.4375 14.4375 18.0312 10 18.0312C5.5625 18.0312 1.96875 14.4375 1.96875 10C1.96875 5.5625 5.59375 1.9375 10.0312 1.9375C14.4375 1.9375 18.0625 5.5625 18.0625 10Z" fill="black"/>
<path id="Vector_2" d="M7.4375 6.28125L11.0938 10L7.4375 13.7187C7.15625 14 7.15625 14.4375 7.4375 14.7188C7.71875 15 8.15625 15 8.4375 14.7188L12.5937 10.5C12.7187 10.375 12.7812 10.1875 12.7812 10C12.7812 9.8125 12.7187 9.65625 12.5937 9.5L8.4375 5.28125C8.15625 5 7.71875 5 7.4375 5.28125C7.15625 5.53125 7.15625 6 7.4375 6.28125Z" fill="black"/>
</g>
</g>
<defs>
<clipPath id="clip0_44_394">
<rect width="20" height="20" fill="white" transform="matrix(0 -1 1 0 0 20)"/>
</clipPath>
</defs>
</svg>
