<svg width="18" height="18" viewBox="0 0 18 18" fill="none" xmlns="http://www.w3.org/2000/svg">
<g id="lni_lni-comments-alt" clip-path="url(#clip0_41_237)">
<g id="Group">
<path id="Vector" d="M13.0093 3.26251H5.75308C5.41558 3.26251 5.1062 3.54376 5.1062 3.90939C5.1062 4.27501 5.38745 4.55626 5.75308 4.55626H13.0375C13.375 4.55626 13.6843 4.27501 13.6843 3.90939C13.6843 3.54376 13.375 3.26251 13.0093 3.26251Z" fill="black"/>
<path id="Vector_2" d="M11.5468 6.69376H5.75308C5.41558 6.69376 5.1062 6.97501 5.1062 7.34063C5.1062 7.70626 5.38745 7.98751 5.75308 7.98751H11.5468C11.8843 7.98751 12.1937 7.70626 12.1937 7.34063C12.1937 6.97501 11.8843 6.69376 11.5468 6.69376Z" fill="black"/>
<path id="Vector_3" d="M16.2719 0H2.77188C1.81563 0 1 0.7875 1 1.77187V12.375C1 12.825 1.25312 13.2469 1.675 13.4437C1.84375 13.5281 2.0125 13.5562 2.18125 13.5562C2.4625 13.5562 2.71563 13.4719 2.94063 13.275L5.33125 11.3062H16.2719C17.2281 11.3062 18.0437 10.5187 18.0437 9.53437V1.77187C18.0437 0.7875 17.2281 0 16.2719 0ZM16.7781 9.53437C16.7781 9.81562 16.5531 10.0406 16.2719 10.0406H5.10625C4.96562 10.0406 4.825 10.0969 4.7125 10.1812L2.29375 12.1781V1.77187C2.29375 1.49062 2.51875 1.26562 2.8 1.26562H16.3C16.5812 1.26562 16.8063 1.49062 16.8063 1.77187V9.53437H16.7781Z" fill="black"/>
</g>
</g>
<defs>
<clipPath id="clip0_41_237">
<rect width="18" height="18" fill="white"/>
</clipPath>
</defs>
</svg>
