<svg width="10" height="15" viewBox="0 0 10 15" fill="none" xmlns="http://www.w3.org/2000/svg">
<g id="&#240;&#159;&#166;&#134; icon &#34;search normal 1&#34;">
<g id="Group">
<path id="Vector" d="M4.76791 14.3024C2.13974 14.3024 0 11.0931 0 7.1512C0 3.20932 2.13974 0 4.76791 0C7.39607 0 9.53582 3.20932 9.53582 7.1512C9.53582 11.0931 7.39607 14.3024 4.76791 14.3024ZM4.76791 1.04652C2.52118 1.04652 0.697743 3.78839 0.697743 7.1512C0.697743 10.514 2.52118 13.2559 4.76791 13.2559C7.01464 13.2559 8.83807 10.514 8.83807 7.1512C8.83807 3.78839 7.01464 1.04652 4.76791 1.04652Z" fill="#292D32"/>
<path id="Vector_2" d="M9.65228 15C9.5639 15 9.47552 14.9512 9.40575 14.8465L8.47542 13.4512C8.34053 13.2488 8.34053 12.9139 8.47542 12.7116C8.61032 12.5093 8.8336 12.5093 8.9685 12.7116L9.89882 14.107C10.0337 14.3093 10.0337 14.6442 9.89882 14.8465C9.82905 14.9512 9.74067 15 9.65228 15Z" fill="#292D32"/>
</g>
</g>
</svg>
