<svg width="12" height="18" viewBox="0 0 12 18" fill="none" xmlns="http://www.w3.org/2000/svg">
<path id="Vector" d="M10.6312 1.43438H7.59375C7.3125 0.61875 6.55312 0 5.625 0C4.69688 0 3.9375 0.590625 3.65625 1.43438H0.61875C0.28125 1.43438 0 1.71563 0 2.05313C0 2.39062 0.28125 2.67188 0.61875 2.67188H2.75625C1.94062 3.2625 1.43438 4.21875 1.43438 5.25937V11.1937C1.43438 12.5719 2.30625 13.7812 3.57188 14.2031V15.2719C3.57188 16.2281 4.35938 17.0156 5.31562 17.0156H5.93437C6.89062 17.0156 7.67812 16.2281 7.67812 15.2719V14.2312C8.94375 13.8094 9.81563 12.6 9.81563 11.2219V5.2875C9.81563 4.24687 9.30937 3.29063 8.49375 2.7H10.6312C10.9688 2.7 11.25 2.41875 11.25 2.08125C11.25 1.74375 10.9969 1.43438 10.6312 1.43438ZM5.625 1.26562C6.075 1.26562 6.4125 1.63125 6.4125 2.05313C6.4125 2.475 6.04688 2.84063 5.625 2.84063C5.20312 2.84063 4.8375 2.475 4.8375 2.05313C4.8375 1.63125 5.175 1.26562 5.625 1.26562ZM5.93437 15.7781H5.31562C5.03437 15.7781 4.80938 15.5531 4.80938 15.2719V13.2188C4.80938 12.9375 5.03437 12.7125 5.31562 12.7125H5.93437C6.21562 12.7125 6.44063 12.9375 6.44063 13.2188V15.2719C6.4125 15.5531 6.21562 15.7781 5.93437 15.7781ZM8.57812 11.2219C8.57812 11.925 8.2125 12.5156 7.65 12.8531C7.48125 12.0656 6.77812 11.475 5.93437 11.475H5.31562C4.47187 11.475 3.76875 12.0656 3.6 12.8531C3.0375 12.5156 2.67188 11.8969 2.67188 11.2219V5.2875C2.67188 4.41562 3.2625 3.68438 4.07812 3.43125C4.44375 3.85312 5.00625 4.13438 5.625 4.13438C6.24375 4.13438 6.77812 3.85312 7.17188 3.43125C7.9875 3.65625 8.57812 4.41562 8.57812 5.2875V11.2219Z" fill="black"/>
</svg>
