<svg width="20" height="23" viewBox="0 0 20 23" fill="none" xmlns="http://www.w3.org/2000/svg">
<path id="Vector" d="M19.3687 19.275L18.6187 18.1125C18.4688 17.8875 18.3937 17.6625 18.3937 17.4V9.6C18.3937 7.3875 17.4563 5.325 15.7313 3.7875C14.3438 2.55 12.5437 1.7625 10.6312 1.6125V0.8625C10.6312 0.4125 10.2562 0 9.76875 0C9.31875 0 8.90625 0.375 8.90625 0.8625V1.575C8.83125 1.575 8.75625 1.575 8.68125 1.6125C4.33125 2.1 1.06875 5.5875 1.06875 9.75V17.4C1.03125 17.775 0.95625 17.9625 0.88125 18.075L0.16875 19.275C-0.05625 19.65 -0.05625 20.1 0.16875 20.475C0.39375 20.8125 0.76875 21.0375 1.18125 21.0375H8.94375V21.8625C8.94375 22.3125 9.31875 22.725 9.80625 22.725C10.2562 22.725 10.6688 22.35 10.6688 21.8625V21.0375H18.3937C18.8062 21.0375 19.1812 20.8125 19.4062 20.475C19.6313 20.1 19.6312 19.65 19.3687 19.275ZM2.08125 19.35L2.34375 18.9C2.56875 18.525 2.68125 18.075 2.75625 17.55V9.75C2.75625 6.45 5.38125 3.675 8.86875 3.3C11.0062 3.075 13.1062 3.7125 14.6437 5.0625C15.9937 6.2625 16.7437 7.875 16.7437 9.6V17.4C16.7437 17.9625 16.8938 18.4875 17.2313 19.0125L17.4562 19.35H2.08125Z" fill="black"/>
</svg>
