<svg width="18" height="18" viewBox="0 0 18 18" fill="none" xmlns="http://www.w3.org/2000/svg">
<path id="Vector" d="M17.4799 7.30473C16.7069 5.48024 14.0909 5.54315 12.5451 5.60607C12.7234 4.47362 13.0504 2.05146 12.6343 1.23359C12.3073 0.510083 11.6532 0.0696889 10.8803 0.00677551C10.1074 -0.0561379 9.39394 0.321342 8.97775 1.04485C7.28328 3.84449 5.64826 5.70044 5.0537 6.39248C5.0537 6.39248 5.02397 6.42394 4.99425 6.42394H1.42693C0.654009 6.42394 0 7.11599 0 7.93386V15.1374C0 15.9868 0.654009 16.6474 1.42693 16.6474H4.07269L4.22133 16.7417C4.22133 16.7417 4.25106 16.7417 4.25106 16.7732C5.0537 17.3394 6.68872 17.7483 9.06694 17.9685C9.4534 18 9.75067 18 10.1074 18C12.1289 18 14.0612 17.4652 15.3692 16.5215C17.8961 14.7914 18.6095 10.01 17.4799 7.30473ZM1.36747 15.106V7.9024C1.36747 7.83949 1.3972 7.80803 1.45666 7.80803H3.06195V15.2004H1.45666C1.3972 15.2318 1.36747 15.1689 1.36747 15.106ZM14.6557 15.3576C13.5261 16.1441 11.8911 16.5844 10.1074 16.5844C9.7804 16.5844 9.51285 16.5844 9.21558 16.553C6.30226 16.2699 5.32125 15.798 5.02398 15.5778L4.7267 15.3576C4.63752 15.2947 4.51861 15.2318 4.39969 15.2318V7.80803H4.99425C5.38071 7.80803 5.76717 7.65075 6.03472 7.33618C6.68872 6.64414 8.3832 4.69382 10.1371 1.76835C10.256 1.5167 10.4939 1.39087 10.7911 1.42233C10.9992 1.45378 11.2965 1.5167 11.4452 1.86272C11.5343 2.08292 11.5938 3.37264 11.1776 5.66898L11.0587 6.14083C10.9992 6.36103 11.0587 6.58122 11.1776 6.73851C11.2965 6.89579 11.5046 6.99016 11.7127 6.99016H12.5451C13.7045 6.9587 15.8448 6.89579 16.2313 7.87095C17.1529 10.01 16.5583 14.0365 14.6557 15.3576Z" fill="black"/>
</svg>
