<svg width="24" height="23" viewBox="0 0 24 23" fill="none" xmlns="http://www.w3.org/2000/svg">
<g id="Group">
<path id="Vector" d="M11.3528 5.92932H4.80669C4.34187 5.92932 3.95453 6.40749 3.95453 6.9813C3.95453 7.5551 4.34187 8.03327 4.80669 8.03327H11.3141C11.7789 8.03327 12.1662 7.5551 12.1662 6.9813C12.1662 6.40749 11.8176 5.92932 11.3528 5.92932Z" fill="black"/>
<path id="Vector_2" d="M7.82797 11.8586H4.80669C4.34187 11.8586 3.95453 12.3368 3.95453 12.9106C3.95453 13.4844 4.34187 13.9626 4.80669 13.9626H7.78923C8.25405 13.9626 8.64139 13.4844 8.64139 12.9106C8.64139 12.3368 8.29278 11.8586 7.82797 11.8586Z" fill="black"/>
<path id="Vector_3" d="M18.2088 12.7194C18.1701 12.6716 18.1313 12.6237 18.0539 12.6237C18.0151 12.5759 17.9377 12.5759 17.8989 12.5759C17.6278 12.5281 17.3179 12.6237 17.1242 12.8628C17.0855 12.9106 17.0468 12.9585 17.008 13.0063C16.9693 13.0541 16.9306 13.1497 16.9306 13.1975C16.8918 13.2454 16.8918 13.341 16.8918 13.3888C16.8918 13.4844 16.8531 13.5323 16.8531 13.5801C16.8531 13.6757 16.8531 13.7235 16.8918 13.7713C16.8918 13.867 16.9306 13.9148 16.9306 13.9626C16.9693 14.0104 16.9693 14.1061 17.008 14.1539C17.0468 14.2017 17.0855 14.2495 17.1242 14.2973C17.2792 14.4886 17.5116 14.6321 17.744 14.6321C17.9764 14.6321 18.2088 14.5364 18.3637 14.2973C18.4025 14.2495 18.4412 14.2017 18.4799 14.1539C18.5187 14.1061 18.5187 14.0582 18.5574 13.9626C18.5961 13.9148 18.5961 13.8192 18.5961 13.7713C18.5961 13.7235 18.5961 13.6279 18.5961 13.5801C18.5961 13.2932 18.5187 13.0063 18.325 12.815C18.2863 12.815 18.2475 12.7672 18.2088 12.7194Z" fill="black"/>
<path id="Vector_4" d="M17.9376 3.82535C16.9693 3.6819 16.0784 4.25571 15.6136 5.30768C15.3812 5.83367 15.5361 6.50311 15.9622 6.74219C16.3883 7.02909 16.9305 6.83783 17.1242 6.31184C17.2404 6.07275 17.4728 5.9293 17.7052 5.97712C17.9376 6.02494 18.17 6.26402 18.17 6.50311C18.2088 6.83783 18.0538 7.02909 17.8989 7.12473C17.2404 7.50726 16.7756 8.46361 16.7756 9.32431V9.94594C16.7756 10.5197 17.1629 10.9979 17.6278 10.9979C18.0926 10.9979 18.4799 10.5197 18.4799 9.94594V9.32431C18.4799 9.22868 18.5574 9.08523 18.6349 9.03741C19.487 8.51142 19.9906 7.41163 19.8744 6.2162C19.7969 4.97296 18.9447 3.9688 17.9376 3.82535Z" fill="black"/>
<path id="Vector_5" d="M21.0751 0H2.48262C1.16565 0 0.0810852 1.33888 0.0810852 2.96466V20.9917C0.0810852 21.7568 0.429695 22.474 1.01071 22.8087C1.24312 22.9522 1.47552 23 1.70793 23C2.09527 23 2.44388 22.8565 2.75376 22.5218L6.04618 19.1746H21.0751C22.3921 19.1746 23.4767 17.8358 23.4767 16.21V3.01247C23.4767 1.33888 22.3921 0 21.0751 0ZM21.7723 16.21C21.7723 16.6881 21.4625 17.0707 21.0751 17.0707H5.69757C5.5039 17.0707 5.31023 17.1663 5.15529 17.3098L1.82413 20.7048V3.01247C1.82413 2.5343 2.13401 2.15177 2.52135 2.15177H21.1139C21.5012 2.15177 21.8111 2.5343 21.8111 3.01247V16.21H21.7723Z" fill="black"/>
</g>
</svg>
