<svg width="12" height="18" viewBox="0 0 12 18" fill="none" xmlns="http://www.w3.org/2000/svg">
<g id="Group">
<path id="Vector" d="M6 0C2.688 0 0 3.21854 0 7.18212C0 10.1921 3.216 14.9603 5.112 17.5232C5.352 17.851 5.664 18 6 18C6.336 18 6.648 17.8212 6.888 17.5232C8.784 14.9603 12 10.1921 12 7.18212C12 3.21854 9.312 0 6 0ZM6.096 16.6291C6.048 16.6887 5.976 16.6887 5.904 16.6291C3.576 13.4702 1.08 9.35762 1.08 7.18212C1.08 3.96358 3.288 1.34106 6 1.34106C8.712 1.34106 10.92 3.96358 10.92 7.18212C10.92 9.35762 8.424 13.4702 6.096 16.6291Z" fill="black"/>
<path id="Vector_2" d="M6 4.14236C4.56 4.14236 3.384 5.60263 3.384 7.39071C3.384 9.17879 4.56 10.6689 6 10.6689C7.44 10.6689 8.616 9.20859 8.616 7.42051C8.616 5.63243 7.44 4.14236 6 4.14236ZM6 9.32779C5.136 9.32779 4.464 8.46356 4.464 7.42051C4.464 6.37746 5.16 5.51323 6 5.51323C6.84 5.51323 7.536 6.37746 7.536 7.42051C7.536 8.46356 6.864 9.32779 6 9.32779Z" fill="black"/>
</g>
</svg>
